<svg width="50" height="50" viewBox="0 0 50 50" fill="none" xmlns="http://www.w3.org/2000/svg">
<g clip-path="url(#clip0_211_6)">
<path d="M49.8919 38.7409C49.7505 38.3147 48.8507 37.687 47.1933 36.8591C46.7443 36.5982 46.1045 36.2436 45.2766 35.7937C44.448 35.3438 43.6959 34.9293 43.0216 34.5504C42.346 34.1717 41.713 33.8048 41.1216 33.4502C41.0271 33.3791 40.7312 33.1723 40.234 32.8283C39.7364 32.4852 39.3167 32.2306 38.9728 32.0646C38.6297 31.8995 38.2921 31.8165 37.9606 31.8165C37.4872 31.8165 36.896 32.154 36.186 32.8283C35.476 33.5034 34.8248 34.2367 34.2333 35.0305C33.6416 35.8239 33.0141 36.5573 32.3519 37.232C31.6887 37.907 31.1438 38.2442 30.7182 38.2442C30.5045 38.2442 30.2381 38.1846 29.9188 38.0671C29.5997 37.9488 29.3569 37.8475 29.1902 37.7657C29.025 37.6823 28.7416 37.5171 28.3388 37.2677C27.9353 37.0191 27.711 36.8829 27.6637 36.8591C24.4205 35.0595 21.639 32.9998 19.3188 30.6805C16.9992 28.3598 14.9393 25.5786 13.1401 22.3351C13.1165 22.2877 12.98 22.0627 12.7317 21.6604C12.4829 21.2578 12.3171 20.9741 12.2343 20.8079C12.1514 20.6424 12.0508 20.3996 11.9327 20.0801C11.8145 19.7605 11.7552 19.4944 11.7552 19.2811C11.7552 18.8552 12.0926 18.3104 12.7674 17.6475C13.442 16.9849 14.1761 16.3573 14.9689 15.7659C15.7623 15.1745 16.4956 14.5232 17.1705 13.8133C17.8451 13.1029 18.1824 12.5114 18.1824 12.038C18.1824 11.7068 18.0996 11.3691 17.934 11.0259C17.7684 10.682 17.5139 10.2624 17.1705 9.76497C16.827 9.26783 16.6199 8.97218 16.5487 8.87703C16.194 8.28561 15.8274 7.6524 15.4482 6.97765C15.069 6.30302 14.6551 5.55102 14.205 4.72254C13.7554 3.89442 13.4006 3.25499 13.1399 2.80524C12.3118 1.14839 11.6845 0.248384 11.2583 0.106841C11.0925 0.0358211 10.8437 0 10.5126 0C9.87306 0 9.03873 0.11816 8.009 0.355226C6.9789 0.591918 6.16832 0.840178 5.5764 1.101C4.39269 1.59789 3.13808 3.04193 1.8122 5.43261C0.604861 7.6575 0.00125122 9.85963 0.00125122 12.0374C0.00125122 12.6761 0.0426693 13.2975 0.125506 13.9017C0.208342 14.5053 0.356352 15.186 0.569662 15.9437C0.782598 16.7012 0.954365 17.2639 1.08422 17.6303C1.21419 17.997 1.45686 18.6538 1.81208 19.6011C2.16681 20.5481 2.38012 21.1278 2.45114 21.3409C3.27962 23.6611 4.26209 25.7323 5.39829 27.5554C7.2677 30.5855 9.81883 33.717 13.0502 36.9486C16.2817 40.1799 19.4125 42.7309 22.4429 44.6011C24.2657 45.7372 26.3377 46.7195 28.6575 47.5486C28.8707 47.6193 29.4504 47.8321 30.397 48.1881C31.3441 48.543 32.0012 48.7857 32.3678 48.9159C32.7346 49.0463 33.2974 49.2182 34.0543 49.4315C34.8127 49.6448 35.4928 49.7928 36.0964 49.8762C36.7004 49.958 37.3219 50.0001 37.9608 50.0001C40.1384 50.0001 42.3406 49.3961 44.5659 48.1889C46.9563 46.8635 48.4 45.6087 48.8971 44.4241C49.1586 43.8328 49.4062 43.022 49.6429 41.9919C49.8803 40.9623 49.9983 40.1281 49.9983 39.4886C49.999 39.1562 49.9633 38.908 49.8919 38.7409Z" fill="#E00020"/>
</g>
<defs>
<clipPath id="clip0_211_6">
<rect width="50" height="50" fill="white"/>
</clipPath>
</defs>
</svg>
