<svg width="50" height="50" viewBox="0 0 50 50" fill="none" xmlns="http://www.w3.org/2000/svg">
<path d="M20.4135 28.3892L23.0482 31.9027L21.0718 48.9946H2.17462C2.17462 48.9946 2.3079 41.594 3.05998 37.2066C3.18409 36.4819 3.47716 35.7965 3.91546 35.2061C4.35376 34.6157 4.92497 34.1369 5.5828 33.8083C9.97013 31.6212 19.5973 28.3892 19.5973 28.3892H20.4135Z" fill="#E00020"/>
<path d="M47.8254 48.9946H29.4219L26.9518 31.9043L29.5865 28.3892H30.4011C30.4011 28.3892 40.0299 31.6212 44.4173 33.8083C45.0749 34.1371 45.6459 34.6161 46.0842 35.2064C46.5225 35.7968 46.8156 36.482 46.9401 37.2066C47.6921 41.594 47.8254 48.9946 47.8254 48.9946Z" fill="#E00020"/>
<path d="M25 25.2451C22.9847 25.2451 21.0321 24.544 19.4771 23.2621C17.9221 21.9801 16.8614 20.1972 16.477 18.2189L15.149 11.385C14.9732 10.0915 15.0763 8.77539 15.4514 7.52506C15.8264 6.27473 16.4647 5.11914 17.3234 4.13593C18.1821 3.15272 19.2412 2.36466 20.4297 1.8247C21.6181 1.28473 22.9084 1.00537 24.2137 1.00537H25.7862C27.0916 1.00537 28.3819 1.28473 29.5703 1.8247C30.7588 2.36466 31.8179 3.15272 32.6766 4.13593C33.5352 5.11914 34.1735 6.27472 34.5486 7.52506C34.9236 8.77539 35.0268 10.0915 34.851 11.385L33.523 18.2189C33.1386 20.1972 32.0779 21.9801 30.5229 23.2621C28.9678 24.544 27.0153 25.2451 25 25.2451Z" fill="#E00020"/>
</svg>
