<svg width="1332" height="503" viewBox="0 0 1332 503" fill="none" xmlns="http://www.w3.org/2000/svg">
<path d="M953.113 2.31632C949.591 3.95694 933.269 25.2851 871.388 108.547C828.764 165.695 791.658 215.461 788.958 219.152L783.791 225.578L776.159 218.059C767 208.762 758.311 203.019 741.989 194.953C726.137 187.297 720.383 183.879 714.277 178.41C708.289 173.078 698.191 170.344 687.975 171.164C680.812 171.711 680.46 171.984 674.941 179.23C665.078 191.945 652.748 210.266 636.427 236.105C627.855 249.777 619.4 263.039 617.757 265.363L614.586 269.738L606.484 262.766C601.905 259.074 591.454 251.555 583 246.086C565.034 234.465 561.042 231.32 561.864 229.543C563.508 226.535 560.102 228.723 557.519 232.277C546.012 248.82 535.444 267.687 522.41 295.305C513.251 314.719 502.213 335.09 491.645 352.726C479.316 373.098 459.237 404.68 458.532 404.68C458.298 404.68 455.597 398.937 452.661 391.965C446.321 377.199 439.275 365.851 425.42 348.215C403.579 320.461 352.383 269.055 318.566 241.027C310.698 234.465 310.581 234.465 301.539 234.465C293.202 234.601 292.028 235.012 288.036 238.703C281.813 244.445 266.665 266.594 246.586 299.406C225.802 333.312 213.59 349.992 189.519 377.336C162.864 407.687 142.433 428.059 101.57 465.519C61.7639 501.887 53.3096 511.32 50.1392 521.848C49.3172 524.855 40.0409 544.816 29.5903 566.281C12.6816 601.008 8.57183 610.031 1.52651 628.625C0.587137 631.223 2.79996e-05 633.547 0.352294 633.82C1.05682 634.641 11.8596 623.293 34.0524 598.137C52.3702 577.355 56.0103 574.211 65.404 571.066C73.0364 568.469 75.7371 566.828 81.8431 560.949C84.5438 558.351 89.8278 555.07 93.5853 553.566C101.687 550.422 103.566 548.508 108.263 538.801C122.941 508.312 151.709 467.57 172.258 448.156C179.656 441.184 203.844 424.23 204.901 425.324C205.136 425.598 204.079 431.203 202.553 437.766C201.026 444.328 198.678 458 197.386 467.98C196.095 478.098 194.451 487.805 193.864 489.582C192.924 492.726 192.807 492.59 192.102 488.078C191.75 485.48 190.576 476.594 189.519 468.254C187.64 453.215 185.409 444.328 183.296 444.328C181.182 444.328 170.731 454.855 162.982 464.973C158.637 470.578 149.008 483.703 141.611 494.23C128.812 512.277 127.755 514.328 122.588 529.504C119.653 538.391 115.778 547.551 114.134 549.738C111.316 553.703 103.684 558.351 65.6389 579.406C49.5521 588.293 35.4614 605.93 31.1168 622.883C29.4729 629.445 29.4729 629.582 32.5259 633.273C34.2872 635.461 36.6357 637.101 37.8099 637.101C40.628 637.101 52.0179 630.402 75.7371 614.816C92.0588 604.152 131.043 577.902 139.732 571.75C146.895 566.555 139.028 573.391 125.054 584.465C98.8693 605.109 78.9075 623.43 70.4532 634.777C68.3396 637.648 66.9305 640.246 67.2828 640.656C67.635 641.066 72.8016 640.383 78.7901 639.289C84.8961 638.059 96.1686 636.144 103.918 635.051C111.668 633.82 121.884 632.043 126.463 630.812C131.16 629.719 135.505 629.035 136.209 629.582C136.797 629.992 137.971 632.863 138.793 635.871C141.141 645.305 145.133 646.945 156.054 643.117C171.436 637.785 180.008 619.191 192.455 563.273C195.038 551.652 198.56 536.34 200.204 529.367C201.731 522.394 205.253 499.836 207.837 479.465C212.768 440.363 215.234 427.375 217.583 428.332C218.405 428.605 219.109 431.34 219.344 434.348C219.696 440.773 218.287 450.617 210.89 492.863C204.666 528.137 202.318 545.773 200.322 572.98C198.795 592.531 198.678 592.941 193.864 602.785C187.523 615.226 184.705 624.797 183.178 639.016C182.121 647.492 182.121 651.867 183.178 656.242L184.47 661.984L187.405 658.84C189.049 657.062 195.625 648.312 201.966 639.152C214.295 621.789 220.166 616.047 221.458 620.012C221.927 621.105 221.575 630.266 220.753 640.246C218.64 668.137 218.64 691.516 220.753 693.156C226.155 697.121 228.386 689.191 231.908 654.875C237.31 601.008 243.416 580.226 265.491 539.758C273.945 524.172 278.29 515.148 278.29 512.687C278.29 512.004 277.233 511.32 275.824 511.32C272.301 511.32 261.499 524.035 251.283 539.894C246.469 547.414 242.007 553.566 241.419 553.703C239.658 553.703 241.537 507.355 244.825 468.254C248.582 423.957 248.582 392.101 244.942 384.309L242.828 379.66L250.578 360.93C258.093 342.609 265.491 321.555 267.017 314.035C267.604 311.301 267.37 310.344 265.961 310.344C263.377 310.344 261.146 313.351 243.533 340.695C214.53 385.949 200.204 403.312 177.894 420.266C162.982 431.613 151.592 439.406 150.887 438.586C150.535 438.312 154.41 434.074 159.459 429.289C173.315 415.891 202.318 381.437 216.526 361.613C233.904 337.141 242.711 323.332 264.904 285.187C275.354 267.004 285.805 249.777 288.036 246.769L292.028 241.437L294.964 245.402C296.608 247.59 298.839 252.785 300.013 256.887C301.187 261.398 302.361 263.586 302.948 262.629C304.945 258.664 305.414 267.277 304.71 299.953C304.358 318.82 304.475 339.465 304.945 345.891L306.001 357.512L306.941 333.996C307.528 321.008 307.645 301.594 307.293 290.93L306.589 271.379L310.698 285.734C315.865 303.781 324.906 344.387 331.13 377.336C338.41 415.754 344.751 440.226 347.451 440.226C350.387 440.226 348.273 413.43 341.58 367.219C339.702 353.82 338.292 342.609 338.527 342.199C338.762 341.926 340.054 344.66 341.463 348.215C342.755 351.906 347.569 364.621 352.031 376.652C376.572 442.141 414.03 572.297 431.525 652.824C440.215 692.746 443.385 716.262 440.567 718.312C438.336 719.816 429.647 706.418 401.348 658.019C371.993 607.57 353.91 580.5 333.596 555.891C322.088 542.082 314.338 534.562 311.638 534.562C310.698 534.562 309.876 537.434 309.407 542.355C308.467 552.609 303.77 572.023 299.308 584.601C294.729 597.18 283.339 619.601 267.37 646.945C253.866 670.051 252.34 675.109 257.389 678.254C259.15 679.348 269.248 680.305 284.748 680.988C323.028 682.492 332.304 686.184 345.807 705.461C359.546 725.012 377.159 731.848 421.545 734.992C430.234 735.676 436.692 736.769 439.51 738.273C442.093 739.641 445.146 740.324 446.321 740.051C451.839 738.273 453.953 725.012 452.074 704.094C449.021 669.367 438.101 621.105 415.086 540.578C407.571 514.601 401.7 493 401.935 492.726C402.17 492.453 404.166 492.863 406.397 493.547C408.511 494.367 413.442 494.914 417.083 494.914C423.423 494.914 423.893 494.641 423.893 491.769C423.893 489.992 421.075 476.594 417.552 461.965C399.117 385.539 401.818 383.762 437.514 448.703C446.908 465.793 456.654 482.746 459.237 486.301C465.813 495.461 473.915 511.457 486.009 539.894C502.566 578.312 531.334 636.691 538.027 645.578C540.376 648.723 537.91 642.023 530.042 624.113C510.081 578.859 487.301 524.172 487.301 521.301C487.301 519.66 500.335 528.957 503.505 533.059C505.736 535.793 520.531 556.711 536.383 579.68C570.553 629.035 578.068 639.289 578.655 637.238C579.594 633.82 571.845 618.644 523.115 529.094C489.884 468.117 469.218 429.152 464.521 418.625L462.525 413.976L481.077 393.059C491.293 381.574 502.331 368.449 505.501 363.801C508.789 359.289 511.842 355.461 512.312 355.461C514.543 355.461 565.739 398.801 587.109 418.762C608.128 438.449 621.279 452.668 627.15 462.375C640.536 484.113 642.885 487.121 650.517 493C661.085 501.066 666.487 510.363 676.585 537.707C684.804 560.266 689.501 569.973 694.198 575.305C697.603 578.996 705.001 582.551 707.232 581.594C708.054 581.32 711.459 576.262 714.747 570.383C718.035 564.641 725.785 550.832 732.008 539.758C738.231 528.684 743.868 519.25 744.572 518.84C745.159 518.293 746.451 518.566 747.155 519.387C748.33 520.48 748.447 518.976 747.508 512.004C746.921 507.082 745.864 503.117 745.159 503.117C744.572 503.117 734.944 513.644 723.906 526.359C702.065 551.652 701.244 552.199 694.316 546.047C689.384 541.672 685.861 533.605 681.047 515.422C679.051 507.492 675.998 498.332 674.589 494.777C671.184 487.121 664.96 480.422 659.441 478.644C648.756 475.226 638.893 462.648 622.453 431.75C604.018 397.023 581.238 348.762 581.238 344.523C581.238 343.84 583.352 343.156 585.818 343.156C588.401 343.156 590.75 342.746 590.984 342.062C592.159 339.875 589.458 335.363 584.761 331.535C576.307 324.699 572.667 312.668 570.083 283.137C569.144 272.336 568.439 263.176 568.674 262.902C568.909 262.766 570.905 265.363 573.019 268.918C578.42 277.668 615.173 321.281 624.215 329.621C633.021 337.687 641.124 342.199 646.173 341.516C649.578 341.105 650.282 341.789 655.332 350.402C658.385 355.461 662.729 363.937 665.195 369.269C669.54 378.976 669.657 379.797 667.543 389.914C666.839 393.195 667.074 393.742 670.009 394.699C676.35 396.613 685.979 395.93 687.27 393.605C690.323 388 666.721 344.797 630.908 290.109C626.094 282.726 625.624 274.934 629.734 268.371C636.661 257.16 654.275 230.226 663.199 217.101C672.005 204.113 673.884 202.199 678.816 200.285C681.869 199.055 685.744 196.594 687.505 194.816L690.558 191.398L692.437 196.594C693.376 199.328 696.077 208.351 698.308 216.691C706.293 245.949 711.224 252.922 738.936 274.66C747.86 281.633 757.841 290.246 761.129 293.801L767 300.09L767.587 315.812L768.174 331.535L759.25 361.613C754.436 378.293 750.091 394.973 749.739 398.801C748.682 407.551 751.03 413.703 759.133 423.41C768.761 435.031 770.64 432.16 764.182 416.164C761.716 410.012 760.424 404.816 760.424 400.578C760.424 394.699 765.238 374.601 766.648 374.601C767 374.601 768.879 378.703 770.875 383.762C776.159 397.707 786.962 415.754 797.06 427.512C804.34 436.125 806.806 440.09 809.624 447.746C821.014 480.148 856.828 557.121 872.092 582.141C879.725 594.719 892.993 606.887 902.857 610.441C905.558 611.398 905.675 611.262 904.971 606.613C902.622 589.66 872.562 520.617 849.547 479.191C843.559 468.391 843.089 467.297 846.142 469.621C848.021 470.988 861.524 481.242 876.085 492.453C890.645 503.527 903.444 512.687 904.501 512.687C908.141 512.687 910.137 510.91 912.486 505.715C913.66 502.844 917.182 497.238 920.118 493.41C925.519 486.301 927.75 481.652 932.682 466.887C935.852 457.453 960.746 409.601 964.738 405.09C966.265 403.449 967.556 401.125 967.556 399.894C967.556 397.707 1077.93 186.613 1083.8 177.726C1085.45 175.129 1088.85 168.019 1091.32 162.004C1097.07 147.785 1108.81 127.277 1117.27 116.887C1122.67 110.187 1123.49 109.504 1121.61 113.469C1120.32 116.066 1113.39 131.516 1106.11 147.648C1098.83 163.781 1090.61 181.691 1087.91 187.297C1077.58 208.762 1060.08 253.195 1021.1 356.965C1010.77 384.719 1010.53 389.367 1020.28 383.625C1025.45 380.48 1041.88 359.289 1049.87 345.617C1053.86 338.644 1056.91 333.859 1056.56 334.953C1056.21 336.047 1051.28 349.855 1045.64 365.715C1026.74 419.172 1024.27 431.34 1030.85 438.996C1034.13 442.824 1034.72 442.961 1045.29 442.961C1063.26 442.961 1068.54 446.105 1068.54 456.906C1068.54 462.648 1069.6 463.332 1072.3 459.641C1074.88 456.223 1075.35 454.035 1077.35 432.023C1080.52 397.297 1081.34 392.512 1086.39 380.07C1089.21 373.098 1093.9 356.144 1098.25 337.687L1105.53 306.926L1105.64 332.219C1105.64 346.164 1106.23 362.16 1107.05 367.902L1108.35 378.293L1103.06 394.426C1100.24 403.312 1097.19 411.516 1096.49 412.473C1095.66 413.703 1095.78 415.207 1097.19 417.805C1101.3 424.914 1106.58 419.172 1110.22 403.586C1111.63 397.707 1111.87 397.434 1112.69 400.578C1113.16 402.492 1115.86 409.328 1118.68 415.754C1124.31 429.152 1135.59 442.824 1143.1 445.695C1148.39 447.746 1154.96 446.379 1156.61 442.961C1159.07 437.629 1157.9 433.527 1152.5 427.375C1146.39 420.402 1146.51 421.906 1148.97 390.324C1150.85 365.715 1153.2 354.504 1160.95 333.039C1165.53 320.461 1166.82 318 1169.87 316.496C1174.34 314.309 1175.63 314.855 1182.91 321.555C1189.95 327.98 1195.71 328.527 1200.99 323.332C1208.51 316.086 1211.32 296.945 1207.8 278.351C1204.28 260.305 1200.17 250.324 1178.09 206.437C1168.11 186.75 1167.17 183.879 1163.06 166.105C1160.72 155.578 1157.78 143.137 1156.49 138.351C1154.73 131.926 1154.49 129.191 1155.43 127.141C1156.14 125.637 1157.08 124.406 1157.66 124.406C1158.13 124.406 1161.42 135.617 1164.83 149.289C1171.87 178.137 1176.68 192.902 1180.91 199.328C1182.91 202.473 1187.72 206.027 1197.47 211.359C1204.98 215.461 1211.56 219.562 1212.03 220.519C1214.14 224.348 1212.85 229.269 1208.27 235.012C1205.69 238.156 1203.57 241.437 1203.57 242.121C1203.57 244.445 1209.21 250.187 1211.56 250.187C1214.73 250.187 1223.18 242.668 1225.3 238.019C1228.23 231.184 1227.53 226.262 1222.13 216.965C1211.56 198.644 1201.46 185.93 1191.6 178.684C1188.43 176.359 1188.31 175.812 1188.31 165.832C1188.31 159.953 1189.13 147.512 1190.07 137.941C1191.13 128.508 1191.83 116.066 1191.6 110.598C1191.25 100.754 1191.13 100.48 1187.6 98.5663C1180.68 95.0116 1170.81 73.2733 1169.76 59.1913C1169.05 50.0312 1170.81 48.9374 1179.27 53.8593C1185.49 57.414 1202.4 69.5819 1201.11 69.7187C1200.76 69.7187 1197.23 68.2148 1193.24 66.3007C1185.84 62.8827 1181.26 61.9257 1181.26 63.9765C1181.26 64.6601 1184.79 73.1366 1189.13 82.8437C1193.48 92.5507 1197.7 103.898 1198.53 108C1199.46 112.785 1200.05 124.953 1200.05 140.949V166.516L1205.22 178.547C1211.32 192.629 1221.19 205.754 1238.57 222.98C1260.52 244.855 1269.8 255.109 1278.84 267.824C1290.7 284.367 1292.81 289.426 1294.69 307.336C1295.63 315.402 1296.92 325.383 1297.75 329.484L1299.16 337.004L1300.68 320.598C1301.62 311.164 1302.09 295.988 1301.86 285.051C1301.39 263.723 1299.86 257.16 1292.35 244.035C1286.36 233.371 1282.25 223.527 1272.38 194.953C1267.45 180.871 1260.76 164.055 1257.59 157.902C1250.78 144.777 1247.37 136.301 1241.15 116.613L1236.69 102.531L1243.5 109.367C1251.25 117.16 1261.11 130.832 1267.69 142.863C1273.09 152.707 1284.95 181.555 1287.06 189.758C1288.24 194.406 1289.76 196.73 1293.87 200.012C1304.09 207.941 1381.82 278.898 1380.41 278.898C1380.18 278.898 1377.48 277.668 1374.54 276.301L1369.26 273.566L1368.43 279.992C1367.5 288.469 1365.38 291.887 1359.39 295.441C1350.59 300.5 1342.13 308.019 1342.13 310.48C1342.13 311.848 1348.59 320.598 1356.58 330.031C1368.9 344.66 1372.43 347.941 1381.47 353.41C1396.15 362.434 1407.18 371.184 1411.29 376.926C1413.17 379.523 1417.05 387.18 1419.87 393.879L1425.15 406.047L1427.26 396.066C1429.26 386.633 1429.26 385.266 1427.38 366.398C1426.32 355.461 1424.44 342.883 1423.15 338.371C1421.98 333.859 1420.57 327.434 1420.22 324.016C1419.75 320.734 1418.46 316.359 1417.4 314.445C1416.23 312.394 1420.22 315.266 1427.26 321.691C1466.25 357.101 1494.43 380.754 1501 383.625C1509.58 387.316 1495.13 370.5 1379.12 241.301C1332.62 189.484 1286.36 137.531 1276.38 126.047C1256.41 102.941 1251.95 98.5663 1231.17 82.4335C1198.29 56.7304 1171.28 40.0507 1160.6 38.5468C1155.67 37.9999 1155.55 37.9999 1153.08 43.8788C1147.21 57.2773 1128.89 85.4413 1114.33 103.215C1105.29 114.289 1100.83 120.988 1096.13 130.422C1094.25 134.113 1092.49 136.437 1092.26 135.48C1091.44 132.473 1080.28 153.391 1080.28 157.902C1080.28 159.133 1075.23 171.984 1069.13 186.476C1060.2 207.668 1056.56 214.777 1050.46 222.98C1046.35 228.449 1039.54 237.746 1035.43 243.351C1030.49 250.187 1026.62 254.016 1024.15 254.973C1021.45 255.793 1020.51 256.887 1020.98 258.391C1021.81 261.398 1006.89 301.457 996.677 323.879C987.166 344.387 974.484 367.492 959.572 391.418L949.473 407.414L941.958 410.148C937.849 411.652 931.038 412.883 927.046 412.883H919.648L903.444 379.934C894.637 361.75 884.304 342.473 880.547 337.141C876.789 331.809 856.593 308.156 835.574 284.504C814.556 260.851 797.295 240.891 797.295 240.344C797.295 236.379 804.692 223.801 815.612 209.035C829.586 190.305 850.369 162.687 850.604 162.687C850.604 162.687 850.722 166.105 850.722 170.344C850.722 177.316 851.074 178.273 854.714 182.101L858.706 186.203L852.6 199.875C849.195 207.394 846.612 213.82 846.964 214.094C847.199 214.367 850.252 208.625 853.657 201.242C861.29 185.109 861.642 184.562 863.755 185.519C867.63 187.16 870.801 197.961 878.316 235.422C884.187 264.133 888.297 269.191 891.702 251.828C892.641 246.769 896.634 220.383 900.626 193.039C904.501 165.695 908.258 141.906 908.845 139.992C909.667 137.394 910.724 136.574 912.72 136.984C914.599 137.258 916.36 139.992 919.648 147.785C923.053 156.262 925.05 159.133 929.512 162.551C934.796 166.789 934.913 166.789 934.209 163.781C933.856 162.004 933.504 158.996 933.504 157.082C933.504 155.168 931.978 150.93 930.099 147.512C925.519 139.445 925.05 135.48 926.341 119.211C927.281 107.043 927.868 104.855 930.216 102.531C933.504 99.3866 938.553 98.9765 940.549 101.848C943.133 105.402 940.197 169.387 935.852 207.941C934.326 221.34 929.864 242.121 925.284 257.57C921.527 270.695 920.47 278.488 923.406 272.062C924.345 270.148 927.516 260.578 930.451 250.871C933.504 241.027 939.61 222.023 944.072 208.488C948.886 193.723 952.879 178.957 954.053 171.574C960.394 131.516 961.92 123.723 964.269 121.809C966.852 119.758 978.007 108.82 992.802 93.9179C1003.14 83.664 1011.71 76.5546 1014.17 76.5546C1014.99 76.5546 1018.63 83.5273 1022.04 91.8671C1028.26 106.906 1028.85 107.726 1042.12 122.219C1049.63 130.422 1057.27 139.582 1058.91 142.59C1062.67 149.152 1063.72 146.828 1061.14 137.805C1056.68 122.766 1054.8 119.211 1045.88 108C1039.54 100.207 1035.31 93.5077 1032.84 87.4921C1023.68 64.5233 1010.65 43.0585 994.681 24.6015C975.071 1.90616 965.091 -3.42587 953.113 2.31632ZM994.094 35.539C1005.72 50.7148 1015.35 63.703 1015.58 64.5233C1015.93 65.6171 1013 65.7538 1005.48 65.2069C995.268 64.5233 986.344 61.6523 986.344 59.0546C986.344 58.371 984.113 56.0468 981.412 53.996C973.78 48.3905 970.14 43.7421 969.318 39.3671C968.731 36.2226 972.018 8.19522 972.958 8.19522C973.075 8.19522 982.586 20.4999 994.094 35.539ZM925.402 52.7655C922.349 60.9687 918.591 70.2655 917.3 73.4101C915.891 76.5546 914.717 79.4257 914.717 79.8358C914.717 80.246 919.648 76.9648 925.637 72.5898C939.023 62.8827 948.534 56.4569 947.008 58.371C945.951 59.7382 901.096 94.4648 899.217 95.4218C896.516 96.789 898.982 89.4062 904.501 79.4257C911.076 67.2577 930.216 36.6327 930.803 37.3163C930.921 37.5898 928.572 44.5624 925.402 52.7655ZM1146.51 102.941C1147.8 104.035 1148.5 105.539 1148.27 106.496C1147.92 107.59 1146.74 106.906 1144.98 104.719C1141.93 100.891 1142.98 99.9335 1146.51 102.941ZM900.626 107.043C900.626 107.316 897.925 109.914 894.52 112.785C886.77 119.758 873.032 138.898 865.752 152.98C860.233 163.644 857.415 167.062 859.059 161.047C859.528 159.269 859.88 156.262 859.763 154.211C859.763 151.34 861.877 148.195 869.861 139.172C875.498 132.883 882.66 123.996 885.713 119.211C888.884 114.289 892.993 109.641 895.107 108.684C898.747 106.769 900.626 106.223 900.626 107.043ZM913.542 109.094C913.542 111.418 906.614 121.535 903.914 123.176C901.33 124.816 901.33 124.816 903.327 121.535C904.383 119.758 906.497 115.93 907.906 113.059C910.137 108.547 913.542 106.223 913.542 109.094ZM1152.26 141.086C1151.56 155.168 1150.97 157.629 1146.27 164.875C1143.92 168.566 1140.99 173.215 1139.93 174.992C1138.76 176.906 1140.4 169.797 1143.57 159.269C1148.5 142.59 1151.91 132.609 1152.5 132.609C1152.61 132.609 1152.5 136.437 1152.26 141.086ZM1150.26 206.574C1144.16 232.551 1140.4 246.223 1138.87 248C1138.29 248.82 1137.82 252.785 1137.82 257.16C1137.82 264.953 1140.99 273.156 1144.63 274.523C1145.45 274.797 1150.73 269.601 1156.37 263.039C1162.01 256.34 1165.65 252.375 1164.59 254.289C1160.95 260.441 1146.16 289.152 1145.33 291.613C1144.86 293.117 1143.81 293.801 1142.75 293.254C1138.76 291.476 1133.71 298.723 1128.89 312.941L1127.25 317.863L1127.72 311.027C1128.07 307.199 1128.89 294.074 1129.6 281.633C1130.66 263.996 1131.59 257.16 1133.83 250.187C1135.35 245.266 1138.99 232.004 1142.05 220.793C1147.45 200.422 1153.67 182.101 1154.84 183.469C1155.2 183.879 1153.08 194.269 1150.26 206.574ZM722.497 202.473C737.879 207.531 758.898 217.648 763.242 222.023C764.182 222.98 767.352 224.211 770.288 224.621C776.394 225.578 779.564 229.133 776.863 232.141C775.454 233.781 774.632 233.644 771.11 230.5C767.117 226.945 755.492 223.254 732.36 218.195C726.607 216.965 718.739 214.504 714.747 212.726C708.289 209.992 707.115 209.035 704.884 203.566C701.713 196.32 701.596 194.953 704.062 196.047C705.118 196.457 713.455 199.328 722.497 202.473ZM724.141 232.004C725.667 237.336 735.296 252.785 738.819 255.93C743.985 260.441 751.148 264.68 755.962 265.91C759.015 266.594 760.307 267.961 761.598 271.516C762.538 274.113 764.064 276.574 765.004 277.121C765.943 277.531 766.765 278.762 766.765 279.855C766.765 281.223 765.708 280.812 763.007 278.351C760.894 276.574 751.5 269.465 742.106 262.492C732.713 255.656 723.319 248 721.205 245.676C717.8 241.984 712.751 232.824 712.751 230.363C712.751 229.953 715.099 229.68 718.035 229.68C722.027 229.68 723.554 230.226 724.141 232.004ZM577.598 251.691C586.288 256.066 601.318 268.644 609.42 278.351C613.647 283.41 616.23 286.965 615.291 286.281C614.234 285.598 608.363 281.496 602.257 277.121C596.034 272.883 585.818 266.594 579.477 263.176C566.561 256.476 566.561 256.476 565.504 251.144C564.682 247.316 564.799 247.18 568.557 248.137C570.67 248.684 574.78 250.324 577.598 251.691ZM804.927 265.363C812.325 276.027 813.147 279.855 805.984 270.285C801.522 264.406 796.59 255.656 797.647 255.656C797.999 255.656 801.17 260.031 804.927 265.363ZM558.928 275.754C560.22 280.676 561.159 285.051 560.924 285.324C560.455 285.734 554.231 267.961 554.231 266.184C554.231 265.5 554.701 265.5 555.406 265.91C555.993 266.32 557.637 270.832 558.928 275.754ZM552.94 278.488C551.765 285.324 542.724 306.379 538.145 312.531L535.326 316.496L537.557 311.027C538.732 308.019 542.607 297.355 546.012 287.375C552.118 269.465 554.936 265.91 552.94 278.488ZM341.111 300.91C348.508 313.625 354.144 329.758 358.841 351.223C360.955 361.34 362.599 369.816 362.364 370.09C362.247 370.363 357.432 357.512 351.679 341.516C346.042 325.519 338.762 305.969 335.709 298.039C329.486 282.453 330.777 283.137 341.111 300.91ZM823.832 318.82C818.196 332.082 815.73 346.301 816.434 360.246C817.139 373.371 819.487 381.164 829.703 405.773C840.623 432.023 841.445 434.348 839.097 432.16C833.226 426.555 814.203 385.812 810.094 370.09C806.923 358.332 807.275 355.734 815.495 331.125C819.018 320.324 822.54 308.703 823.362 305.285L824.654 298.996L826.298 303.918C827.942 308.566 827.824 309.25 823.832 318.82ZM1132.89 342.199C1129.01 360.109 1125.49 374.328 1125.25 374.055C1124.9 373.781 1124.78 368.586 1124.78 362.57C1124.78 354.504 1125.61 349.172 1127.95 341.652C1131.83 328.937 1139.23 308.703 1139.7 309.387C1139.93 309.523 1136.88 324.426 1132.89 342.199ZM1374.42 322.101C1377.71 324.562 1387.93 335.637 1397.32 346.574C1410.12 361.476 1413.64 366.398 1411.88 366.398C1410.24 366.398 1402.96 359.289 1391.21 346.164C1381.35 335.09 1370.78 323.742 1367.97 320.871C1363.62 316.633 1363.27 315.812 1365.62 316.496C1367.26 317.043 1371.25 319.504 1374.42 322.101ZM844.381 359.836C846.847 367.902 848.608 374.601 848.256 374.601C846.612 374.601 839.684 353.82 839.097 347.258C838.745 343.156 838.862 340.969 839.214 342.336C839.567 343.84 841.798 351.633 844.381 359.836ZM937.966 426.281C935.148 430.93 932.682 434.621 932.33 434.621C931.978 434.758 930.334 432.16 928.572 428.879L925.402 423.137L929.747 422.18C932.095 421.769 935.97 420.402 938.201 419.309C940.432 418.078 942.428 417.394 942.663 417.668C942.898 417.941 940.784 421.769 937.966 426.281ZM117.892 488.351C111.199 495.187 85.2483 522.258 73.3887 534.836L65.1692 543.449L75.972 529.094C81.8431 521.164 89.5929 511.457 92.9982 507.492C98.9867 500.793 120.24 482.883 122.588 482.746C123.176 482.609 121.062 485.207 117.892 488.351ZM147.952 566.691C147.952 566.965 146.777 567.922 145.368 568.742C142.785 570.246 142.785 570.109 144.899 568.195C147.364 565.871 147.952 565.598 147.952 566.691Z" fill="#0E0E0E"/>
<path d="M1230.7 246.086C1230.58 247.18 1231.4 251.555 1232.34 255.656C1233.28 259.758 1234.1 263.723 1234.1 264.27C1234.1 264.816 1231.76 263.449 1228.82 261.125C1225.88 258.801 1223.54 257.434 1223.54 257.98C1223.65 260.715 1227.18 283.273 1228.94 291.613C1232.46 308.566 1229.88 315.949 1215.9 330.031C1197.94 348.078 1196.88 351.359 1198.64 380.754C1200.05 402.766 1199.35 410.559 1196.18 411.242C1195 411.516 1189.6 406.594 1182.44 398.664C1175.86 391.418 1169.99 385.539 1169.4 385.539C1167.53 385.539 1168.23 389.504 1170.81 392.512C1172.11 394.016 1174.92 396.203 1177.04 397.16C1184.43 400.852 1185.37 403.313 1185.26 419.582C1185.14 430.656 1184.08 439.68 1180.68 458C1176.21 482.473 1174.45 500.656 1175.86 508.723C1176.21 511.457 1180.32 519.113 1185.37 527.043C1192.54 537.98 1194.18 541.535 1193.95 544.816C1193.59 548.918 1193.24 549.328 1181.26 555.617C1177.15 557.805 1176.92 562.453 1180.68 566.828C1183.38 569.973 1184.32 570.246 1189.25 569.426C1192.3 569.016 1196.65 567.102 1199.11 565.324C1209.56 557.395 1207.21 541.945 1191.36 515.422C1187.14 508.313 1183.61 501.34 1183.61 499.973C1183.61 496.418 1190.78 480.285 1203.46 455.266C1215.08 432.434 1219.43 422.59 1220.72 416.711C1221.3 413.566 1220.95 412.746 1218.49 411.652C1209.21 407.551 1210.03 388.82 1219.31 391.555C1227.06 393.742 1244.2 415.07 1255.71 436.535C1268.74 460.871 1273.79 481.379 1274.85 514.055L1275.55 536.613L1277.78 530.461C1282.48 517.746 1283.66 507.629 1283.19 486.711C1282.48 463.742 1283.54 466.887 1266.86 435.988C1253.13 410.422 1244.32 390.598 1241.74 379.387C1239.39 369.133 1239.27 354.504 1241.5 348.488C1242.44 345.891 1247.14 339.602 1252.07 334.406C1262.99 323.059 1263.58 320.871 1259.82 304.738C1255 283.684 1249.37 271.789 1242.79 268.508C1240.68 267.551 1238.68 265.363 1238.21 263.859C1236.69 258.117 1230.7 244.172 1230.7 246.086Z" fill="#0E0E0E"/>
<path d="M1267.45 309.113C1269.68 327.98 1270.27 340.832 1269.21 349.582C1266.75 369.953 1266.63 376.652 1268.74 384.992C1271.44 395.93 1275.44 401.945 1280.02 401.945C1283.07 401.945 1283.89 401.125 1285.77 396.066C1287.3 392.238 1288.12 387.18 1288.12 380.754C1288.12 375.422 1288.59 370.5 1289.06 369.816C1289.53 368.996 1294.69 368.312 1300.45 368.176C1306.32 368.176 1312.78 367.902 1315.01 367.629C1318.88 367.082 1319.12 367.355 1320.64 373.097C1321.47 376.379 1323.46 389.094 1324.99 401.125C1330.51 442.414 1330.27 445.422 1322.76 441.183C1320.41 439.953 1318.3 438.859 1317.83 438.859C1317.47 438.859 1317.47 441.594 1317.83 445.012C1318.53 452.668 1323.81 463.058 1329.1 467.16C1333.68 470.851 1334.97 470.988 1338.02 468.39C1342.37 464.699 1341.54 431.887 1336.38 396.613C1333.56 378.293 1330.39 364.894 1325.34 350.265L1321.47 339.054L1315.24 345.207C1305.85 354.504 1303.03 356.008 1297.75 353.957C1291.64 351.633 1284.95 346.574 1282.6 342.199C1281.43 340.285 1278.14 330.578 1275.2 320.871C1269.45 301.457 1266.04 296.262 1267.45 309.113Z" fill="#0E0E0E"/>
</svg>
