<svg width="50" height="50" viewBox="0 0 50 50" fill="none" xmlns="http://www.w3.org/2000/svg">
<g clip-path="url(#clip0_259_44)">
<path d="M25.1997 6.22626C24.4896 6.22524 23.7812 6.22844 23.0713 6.23528C19.2561 6.30135 15.4172 6.39406 11.6379 6.92205C10.3336 7.5851 9.66458 9.04058 8.85003 10.192C7.37709 12.6566 6.69177 15.4887 5.88028 18.2101C5.53988 18.5801 5.30702 19.0952 4.92529 19.4062C4.58372 19.3237 4.95003 18.5534 4.8662 18.1873C5.06617 17.0567 3.71285 16.3683 2.76965 16.8003C1.81495 17.1691 0.368206 17.2667 6.47586e-06 18.3921C-0.00959872 19.6681 1.30675 20.6236 2.53782 20.466C3.10438 20.5584 3.34451 21.2645 3.69306 21.6529C3.7226 23.714 3.25428 25.7801 3.37012 27.8563C3.42964 29.17 3.29808 30.5519 3.70208 31.813C3.81589 31.933 3.92504 31.9677 4.02953 31.9541C4.00668 32.0293 3.98864 32.1064 3.98864 32.186V42.8827C3.98893 43.3493 4.41345 43.7741 4.88003 43.7741H8.4456C8.91218 43.7738 9.33699 43.3493 9.33699 42.8827V39.1943H40.6403V42.8827C40.6403 43.3493 41.0651 43.7738 41.5317 43.7741H45.0973C45.564 43.7738 45.9884 43.3493 45.9887 42.8827V32.186C45.9887 32.1015 45.9734 32.0198 45.9478 31.9404C46.5892 31.9439 46.4272 30.9099 46.5299 30.4487C46.6386 27.6783 46.6311 24.8595 46.198 22.1306C46.271 21.47 46.8504 20.8598 47.3395 20.4843C48.5176 20.5424 49.819 19.8665 50 18.606C49.8334 17.4354 48.3654 17.1964 47.4442 16.8596C46.6104 16.5147 45.1949 16.6761 45.1111 17.7874C45.0226 18.2936 45.3495 19.0815 45.1248 19.4157C44.607 19.1991 44.4008 18.5264 44.0515 18.1059C43.3406 15.6197 42.6954 13.0438 41.4773 10.7337C40.6374 9.39015 39.79 7.91401 38.4939 6.95887C36.247 6.48545 33.8828 6.5965 31.5901 6.37674C29.4621 6.27356 27.3299 6.22946 25.1997 6.22626ZM25.7683 10.0874C29.5436 10.1388 33.3514 10.1132 37.1017 10.4786C38.2999 10.6039 38.5377 12.0335 39.1301 12.8572C39.7016 14.073 40.4932 15.312 40.6355 16.6592C39.6068 17.4093 38.1817 17.5483 37.0109 18.0645C35.4647 18.5944 33.7665 18.191 32.1537 18.3192C26.0627 18.3048 19.9675 18.4027 13.8802 18.2738C12.3823 17.7889 10.7781 17.4239 9.3642 16.7821C9.41514 15.473 10.2022 14.2667 10.7149 13.0755C11.2982 12.1738 11.645 10.825 12.766 10.4741C17.0641 10.035 21.4429 10.1418 25.7683 10.0874ZM8.29511 18.2328C10.2357 18.4365 12.2315 18.9281 13.8209 20.0883C14.3845 20.5921 14.5677 21.6334 14.1847 22.2531C12.874 22.806 11.2427 22.1531 10.0233 22.9581C9.11767 23.5209 9.82991 24.774 9.26378 25.464C8.19542 25.6817 6.93351 25.6442 5.91201 25.223C5.03037 24.545 5.48472 23.1966 5.5163 22.2578C5.75963 20.6942 6.37102 18.3524 8.29511 18.2328ZM41.9088 18.2464C43.2361 18.3921 43.8643 19.883 44.1919 21.0161C44.4417 22.2848 44.9307 23.7664 44.3193 24.9773C43.5503 25.8047 42.2125 25.4465 41.204 25.5914C40.6262 25.7845 40.4492 25.2234 40.4718 24.7636C40.543 23.9423 40.3867 22.8613 39.3985 22.7079C38.2568 22.3289 36.9615 22.697 35.8511 22.3259C35.2169 21.3767 35.8377 19.9377 36.8972 19.5698C38.4495 18.8038 40.1596 18.2991 41.9088 18.2464Z" fill="#E00020"/>
</g>
<defs>
<clipPath id="clip0_259_44">
<rect width="50" height="50" fill="white"/>
</clipPath>
</defs>
</svg>
