<svg width="36" height="36" viewBox="0 0 36 36" fill="none" xmlns="http://www.w3.org/2000/svg">
<path d="M27 3L33 9L27 15" stroke="#E00020" stroke-width="2" stroke-linecap="round" stroke-linejoin="round"/>
<path d="M21 9H33" stroke="#E00020" stroke-width="2" stroke-linecap="round" stroke-linejoin="round"/>
<path d="M33 25.38V29.88C33.0017 30.2977 32.9161 30.7112 32.7488 31.094C32.5814 31.4768 32.336 31.8203 32.0281 32.1028C31.7203 32.3852 31.3569 32.6002 30.9611 32.734C30.5654 32.8679 30.1461 32.9176 29.73 32.88C25.1143 32.3784 20.6805 30.8012 16.785 28.275C13.1608 25.972 10.088 22.8992 7.78502 19.275C5.24999 15.3618 3.67239 10.9065 3.18002 6.26996C3.14254 5.85516 3.19183 5.4371 3.32477 5.0424C3.45771 4.6477 3.67138 4.285 3.95217 3.97739C4.23296 3.66979 4.57473 3.42403 4.95571 3.25575C5.33669 3.08746 5.74853 3.00035 6.16502 2.99996H10.665C11.393 2.9928 12.0987 3.25058 12.6507 3.72526C13.2026 4.19994 13.5631 4.85913 13.665 5.57996C13.855 7.02006 14.2072 8.43405 14.715 9.79496C14.9168 10.3318 14.9605 10.9153 14.8409 11.4763C14.7212 12.0372 14.4433 12.5521 14.04 12.96L12.135 14.865C14.2704 18.6203 17.3797 21.7296 21.135 23.865L23.04 21.96C23.4479 21.5567 23.9628 21.2787 24.5237 21.1591C25.0847 21.0395 25.6681 21.0831 26.205 21.285C27.5659 21.7928 28.9799 22.145 30.42 22.335C31.1487 22.4378 31.8141 22.8048 32.2898 23.3662C32.7655 23.9276 33.0183 24.6443 33 25.38Z" stroke="#E00020" stroke-width="2" stroke-linecap="round" stroke-linejoin="round"/>
</svg>
