<svg width="198" height="23" viewBox="0 0 198 23" fill="none" xmlns="http://www.w3.org/2000/svg">
<path d="M7.88 22.48C4.36 22.48 1.82 21.4 0.26 19.24L4.79 14.95C5.73 16.27 6.8 16.93 8 16.93C8.66 16.93 9.2 16.73 9.62 16.33C10.06 15.93 10.36 15.36 10.52 14.62L12.17 6.34H5.03L6.11 0.999999H20.24L17.6 14.2C17.02 17.16 15.94 19.28 14.36 20.56C12.78 21.84 10.62 22.48 7.88 22.48ZM29.8766 22.48C27.9966 22.48 26.3666 22.17 24.9866 21.55C23.6266 20.91 22.5766 20.01 21.8366 18.85C21.1166 17.69 20.7566 16.33 20.7566 14.77C20.7566 14.13 20.8366 13.39 20.9966 12.55L23.3066 0.999999H30.3866L28.1066 12.43C27.9866 12.99 27.9266 13.5 27.9266 13.96C27.9266 14.9 28.1666 15.6 28.6466 16.06C29.1266 16.52 29.8266 16.75 30.7466 16.75C31.7866 16.75 32.5966 16.42 33.1766 15.76C33.7566 15.1 34.2066 13.99 34.5266 12.43L36.8066 0.999999H43.7666L41.3966 12.85C40.7566 16.03 39.4766 18.43 37.5566 20.05C35.6366 21.67 33.0766 22.48 29.8766 22.48ZM47.012 0.999999H54.092L49.892 22H42.812L47.012 0.999999ZM65.2402 22.48C63.1002 22.48 61.2102 22.09 59.5702 21.31C57.9502 20.51 56.6902 19.4 55.7902 17.98C54.9102 16.56 54.4702 14.93 54.4702 13.09C54.4702 10.65 55.0302 8.48 56.1502 6.58C57.2902 4.68 58.8602 3.2 60.8602 2.14C62.8802 1.06 65.1702 0.519999 67.7302 0.519999C69.7502 0.519999 71.5402 0.889999 73.1002 1.63C74.6602 2.35 75.8202 3.38 76.5802 4.72L71.4802 8.71C70.5402 7.07 69.1402 6.25 67.2802 6.25C66.1802 6.25 65.2002 6.52 64.3402 7.06C63.4802 7.6 62.8102 8.36 62.3302 9.34C61.8502 10.3 61.6102 11.4 61.6102 12.64C61.6102 13.88 62.0002 14.88 62.7802 15.64C63.5802 16.38 64.6302 16.75 65.9302 16.75C67.7102 16.75 69.2702 15.94 70.6102 14.32L74.7802 18.31C73.5602 19.81 72.1702 20.88 70.6102 21.52C69.0702 22.16 67.2802 22.48 65.2402 22.48ZM89.6045 14.38L88.1045 22H81.0245L82.5545 14.29L77.3045 0.999999H84.4145L87.2645 8.26L93.1145 0.999999H100.224L89.6045 14.38Z" fill="#E00020"/>
<path d="M121.217 18.34H113.207L111.107 22H103.637L117.017 0.999999H123.977L128.957 22H121.907L121.217 18.34ZM120.227 13.24L119.207 7.87L116.117 13.24H120.227ZM140.238 22.48C138.358 22.48 136.728 22.17 135.348 21.55C133.988 20.91 132.938 20.01 132.198 18.85C131.478 17.69 131.118 16.33 131.118 14.77C131.118 14.13 131.198 13.39 131.358 12.55L133.668 0.999999H140.748L138.468 12.43C138.348 12.99 138.288 13.5 138.288 13.96C138.288 14.9 138.528 15.6 139.008 16.06C139.488 16.52 140.188 16.75 141.108 16.75C142.148 16.75 142.958 16.42 143.538 15.76C144.118 15.1 144.568 13.99 144.888 12.43L147.168 0.999999H154.128L151.758 12.85C151.118 16.03 149.838 18.43 147.918 20.05C145.998 21.67 143.438 22.48 140.238 22.48ZM160.53 6.49H154.38L155.49 0.999999H174.87L173.76 6.49H167.61L164.52 22H157.44L160.53 6.49ZM184.036 22.48C181.896 22.48 180.016 22.09 178.396 21.31C176.796 20.51 175.556 19.4 174.676 17.98C173.816 16.56 173.386 14.93 173.386 13.09C173.386 10.65 173.946 8.48 175.066 6.58C176.206 4.66 177.776 3.17 179.776 2.11C181.796 1.05 184.076 0.519999 186.616 0.519999C188.756 0.519999 190.626 0.919999 192.226 1.72C193.846 2.5 195.086 3.6 195.946 5.02C196.826 6.44 197.266 8.07 197.266 9.91C197.266 12.35 196.696 14.53 195.556 16.45C194.436 18.35 192.866 19.83 190.846 20.89C188.846 21.95 186.576 22.48 184.036 22.48ZM184.636 16.75C185.756 16.75 186.726 16.46 187.546 15.88C188.386 15.3 189.026 14.52 189.466 13.54C189.906 12.56 190.126 11.49 190.126 10.33C190.126 9.09 189.756 8.1 189.016 7.36C188.296 6.62 187.296 6.25 186.016 6.25C184.896 6.25 183.916 6.54 183.076 7.12C182.256 7.7 181.626 8.48 181.186 9.46C180.746 10.44 180.526 11.51 180.526 12.67C180.526 13.91 180.886 14.9 181.606 15.64C182.346 16.38 183.356 16.75 184.636 16.75Z" fill="white"/>
</svg>
