<svg width="35" height="35" viewBox="0 0 35 35" fill="none" xmlns="http://www.w3.org/2000/svg">
<path d="M29.8894 29.8894C36.7035 23.0752 36.7035 11.9248 29.8894 5.11062C23.0752 -1.70354 11.9248 -1.70354 5.11062 5.11062C-1.70354 11.9248 -1.70354 23.0752 5.11062 29.8894C11.9248 36.7035 23.0752 36.7035 29.8894 29.8894ZM8.82743 8.82743C13.6283 4.02655 21.3717 4.02655 26.1726 8.82743C30.9734 13.6283 30.9734 21.3717 26.1726 26.1726C21.3717 30.9734 13.6283 30.9734 8.82743 26.1726C4.02655 21.3717 4.02655 13.6283 8.82743 8.82743Z" fill="#E00020"/>
<path d="M15.9513 20.9071C15.6415 20.5974 15.4867 20.1327 15.3318 19.6681L13.0088 19.9779C13.1637 21.2168 13.6283 22.146 14.2477 22.7655C14.8672 23.385 15.7964 23.8496 16.7256 24.0044V25.708H17.9645V24.0044C19.2035 23.8496 20.1327 23.385 20.7522 22.6106C21.3716 21.8363 21.6814 20.9071 21.6814 19.823C21.6814 18.8938 21.3716 18.1195 20.907 17.5C20.4424 16.8805 19.3583 16.4159 17.9645 15.9513V12.3894C18.584 12.6991 18.8937 13.1637 19.0486 13.7832L21.3716 13.4735C21.2168 12.5443 20.907 11.9248 20.2875 11.3053C19.6681 10.6858 18.8937 10.3761 17.9645 10.3761V9.44691H16.7256V10.3761C15.6415 10.531 14.8672 10.8407 14.2477 11.6151C13.6283 12.2345 13.3185 13.1637 13.3185 14.0929C13.3185 15.0221 13.6283 15.9513 14.0929 16.5708C14.7123 17.1903 15.4867 17.8097 16.7256 18.1195V21.8363C16.5707 21.5266 16.261 21.3717 15.9513 20.9071ZM18.1194 18.2743C18.7389 18.4292 19.0486 18.5841 19.3583 18.8938C19.6681 19.2035 19.6681 19.5133 19.6681 19.9779C19.6681 20.4425 19.5132 20.7522 19.2035 21.2168C18.8937 21.5266 18.584 21.8363 18.1194 21.8363V18.2743ZM15.9513 14.7124C15.7964 14.4027 15.6415 14.0929 15.6415 13.7832C15.6415 13.4735 15.7964 13.1637 15.9513 12.854C16.1061 12.5443 16.4159 12.3894 16.7256 12.2345V15.3319C16.4159 15.177 16.1061 15.0221 15.9513 14.7124Z" fill="#E00020"/>
</svg>
